<svg xmlns="http://www.w3.org/2000/svg" viewBox="0 0 64 64"><defs><style>.cls-1{fill:#000842;}.cls-2{fill:#fff;}.cls-3{fill:#f6ae2d;stroke:#000842;stroke-miterlimit:10;stroke-width:2px;}</style></defs><title>Zeichenfläche 1</title><g id="Ebene_1" data-name="Ebene 1"><rect class="cls-1" width="64" height="64"/></g><g id="Ebene_21" data-name="Ebene 21"><path class="cls-2" d="M39.09,34.2s2.74-3.1,2.83-6.1.1-2,0-3c2.27-.76,4.38-2.08,4.38-4.48,0-2.92-3-4.2-5.81-4.89-1.32-3.55-3.28-7.52-7.06-7.52-1.51,0-2.33.56-4.15,1.48-1.82-.93-2.64-1.48-4.14-1.48-3.78,0-5.74,4-7.06,7.52-2.79.69-5.81,2-5.81,4.89,0,2.4,2.1,3.72,4.37,4.48-.12,1-.11,0,0,3.07a10.12,10.12,0,0,0,2.58,6c-8.15,0-9.77,5.6-9.77,9.45v6a3.9,3.9,0,0,0,3.9,3.89h31.9a3.9,3.9,0,0,0,3.9-3.89v-6C49.11,40,46.32,34.46,39.09,34.2ZM19.37,25.84c1.64.32,1.81.19,1.95.62a6.5,6.5,0,0,0,1.46,3c.71.65,4.17,2.22,5.67-2.22a.87.87,0,0,1,1.62,0c1.42,4.2,4.78,3,5.67,2.22a6.52,6.52,0,0,0,1.47-3c.14-.43.31-.3,1.94-.62a9.93,9.93,0,1,1-19.78,0Zm-4.29-5.18c0-1,2-1.88,5.17-2.47a19.6,19.6,0,0,1,3-6.19,2.34,2.34,0,0,1,2.91-.66c3.41,1.73,2.77,1.73,6.18,0a2.35,2.35,0,0,1,2.92.66,19.6,19.6,0,0,1,3,6.19c3.15.59,5.16,1.48,5.16,2.47C43.44,24.86,15.08,24.89,15.08,20.66ZM13.31,50.79a1.06,1.06,0,0,1-1.06-1.06v-6a7.08,7.08,0,0,1,7.09-7.09c2.6,0,2.78,1.14,4.6,2.77l1.87,2.81-1.51,8.6Zm13.12,0,1.41-8.51-1.5-2.75a12.26,12.26,0,0,1,4.34,2.75l3.55,8.51Z"/><polygon class="cls-3" points="51.78 60.54 41.55 54.84 31.05 60.02 33.32 48.54 25.14 40.16 36.77 38.76 42.21 28.39 47.13 39.02 58.68 40.99 50.09 48.95 51.78 60.54"/></g></svg>